HIERARCHY
ROOT Hips
{
  OFFSET 5.72205e-005 65.662 3.42586
  CHANNELS 6 Xposition Yposition Zposition Zrotation Xrotation Yrotation
  JOINT Chest
  {
    OFFSET 0 8.7983 -4.7612
    CHANNELS 6 Xposition Yposition Zposition Zrotation Xrotation Yrotation
    JOINT Chest2
    {
      OFFSET 0 8.0291 0.4195
      CHANNELS 6 Xposition Yposition Zposition Zrotation Xrotation Yrotation
      JOINT Chest3
      {
        OFFSET 0 9.9351 -2.2114
        CHANNELS 6 Xposition Yposition Zposition Zrotation Xrotation Yrotation
        JOINT Neck
        {
          OFFSET 0 22.3885 -0.4656
          CHANNELS 6 Xposition Yposition Zposition Zrotation Xrotation Yrotation
          JOINT Head
          {
            OFFSET -0.0001 12.643 3.4389
            CHANNELS 6 Xposition Yposition Zposition Zrotation Xrotation Yrotation
            End Site
            {
              OFFSET 0.0001 17.6655 0.5274
            }
          }
        }
        JOINT LeftCollar
        {
          OFFSET 2.2603 21.606 7.4023
          CHANNELS 6 Xposition Yposition Zposition Zrotation Xrotation Yrotation
          JOINT LeftShoulder
          {
            OFFSET 13.5163 -1.1332 -5.0146
            CHANNELS 6 Xposition Yposition Zposition Zrotation Xrotation Yrotation
            JOINT LeftElbow
            {
              OFFSET -0.0995 -28.05 -0.2431
              CHANNELS 6 Xposition Yposition Zposition Zrotation Xrotation Yrotation
              JOINT LeftWrist
              {
                OFFSET 0.0679 -23.3996 -0.1402
                CHANNELS 6 Xposition Yposition Zposition Zrotation Xrotation Yrotation
                JOINT LeftFinger1
                {
                  OFFSET 0.7932 -9.069 2.5189
                  CHANNELS 6 Xposition Yposition Zposition Zrotation Xrotation Yrotation
                  JOINT LeftFinger11
                  {
                    OFFSET -0.8272 -3.3923 0.5977
                    CHANNELS 6 Xposition Yposition Zposition Zrotation Xrotation Yrotation
                    JOINT LeftFinger12
                    {
                      OFFSET -0.5649 -2.3158 0.4082
                      CHANNELS 6 Xposition Yposition Zposition Zrotation Xrotation Yrotation
                      End Site
                      {
                        OFFSET -0.4919 -1.6479 0.2673
                      }
                    }
                  }
                }
                JOINT LeftFinger2
                {
                  OFFSET 0.9159 -9.2044 0.2193
                  CHANNELS 6 Xposition Yposition Zposition Zrotation Xrotation Yrotation
                  JOINT LeftFinger21
                  {
                    OFFSET 0.0117 -4.1944 -0.0248
                    CHANNELS 6 Xposition Yposition Zposition Zrotation Xrotation Yrotation
                    JOINT LeftFinger22
                    {
                      OFFSET 0.0071 -2.3249 -0.0142
                      CHANNELS 6 Xposition Yposition Zposition Zrotation Xrotation Yrotation
                      End Site
                      {
                        OFFSET -0.1475 -2.0882 0.0028
                      }
                    }
                  }
                }
                JOINT LeftFinger3
                {
                  OFFSET 0.6113 -8.7231 -2.0637
                  CHANNELS 6 Xposition Yposition Zposition Zrotation Xrotation Yrotation
                  JOINT LeftFinger31
                  {
                    OFFSET -0.1927 -3.8059 -0.2383
                    CHANNELS 6 Xposition Yposition Zposition Zrotation Xrotation Yrotation
                    JOINT LeftFinger32
                    {
                      OFFSET -0.1091 -2.1688 -0.1362
                      CHANNELS 6 Xposition Yposition Zposition Zrotation Xrotation Yrotation
                      End Site
                      {
                        OFFSET -0.2358 -1.9176 -0.0906
                      }
                    }
                  }
                }
                JOINT LeftFinger4
                {
                  OFFSET -0.6151 -8.0947 -3.5641
                  CHANNELS 6 Xposition Yposition Zposition Zrotation Xrotation Yrotation
                  JOINT LeftFinger41
                  {
                    OFFSET -0.4882 -2.341 -0.6462
                    CHANNELS 6 Xposition Yposition Zposition Zrotation Xrotation Yrotation
                    JOINT LeftFinger42
                    {
                      OFFSET -0.3575 -1.7167 -0.4742
                      CHANNELS 6 Xposition Yposition Zposition Zrotation Xrotation Yrotation
                      End Site
                      {
                        OFFSET -0.4187 -1.5237 -0.3496
                      }
                    }
                  }
                }
                JOINT LeftFinger0
                {
                  OFFSET -1.42 -1.8761 1.4223
                  CHANNELS 6 Xposition Yposition Zposition Zrotation Xrotation Yrotation
                  JOINT LeftFinger01
                  {
                    OFFSET -1.1471 -3.4929 2.6334
                    CHANNELS 6 Xposition Yposition Zposition Zrotation Xrotation Yrotation
                    JOINT LeftFinger02
                    {
                      OFFSET -0.823 -2.3 1.6571
                      CHANNELS 6 Xposition Yposition Zposition Zrotation Xrotation Yrotation
                      End Site
                      {
                        OFFSET -0.5822 -1.6914 1.1582
                      }
                    }
                  }
                }
              }
            }
          }
        }
        JOINT RightCollar
        {
          OFFSET -2.2603 21.606 7.4023
          CHANNELS 6 Xposition Yposition Zposition Zrotation Xrotation Yrotation
          JOINT RightShoulder
          {
            OFFSET -13.5187 -1.1334 -5.0155
            CHANNELS 6 Xposition Yposition Zposition Zrotation Xrotation Yrotation
            JOINT RightElbow
            {
              OFFSET 0.0994 -28.0499 -0.2431
              CHANNELS 6 Xposition Yposition Zposition Zrotation Xrotation Yrotation
              JOINT RightWrist
              {
                OFFSET -0.0679 -23.3996 -0.1402
                CHANNELS 6 Xposition Yposition Zposition Zrotation Xrotation Yrotation
                JOINT RightFinger1
                {
                  OFFSET -0.7932 -9.0691 2.5189
                  CHANNELS 6 Xposition Yposition Zposition Zrotation Xrotation Yrotation
                  JOINT RightFinger11
                  {
                    OFFSET 0.8272 -3.3923 0.5977
                    CHANNELS 6 Xposition Yposition Zposition Zrotation Xrotation Yrotation
                    JOINT RightFinger12
                    {
                      OFFSET 0.565 -2.3158 0.4082
                      CHANNELS 6 Xposition Yposition Zposition Zrotation Xrotation Yrotation
                      End Site
                      {
                        OFFSET 0.4919 -1.6479 0.2673
                      }
                    }
                  }
                }
                JOINT RightFinger2
                {
                  OFFSET -0.916 -9.2044 0.2193
                  CHANNELS 6 Xposition Yposition Zposition Zrotation Xrotation Yrotation
                  JOINT RightFinger21
                  {
                    OFFSET -0.0117 -4.1944 -0.0248
                    CHANNELS 6 Xposition Yposition Zposition Zrotation Xrotation Yrotation
                    JOINT RightFinger22
                    {
                      OFFSET -0.0071 -2.3249 -0.0142
                      CHANNELS 6 Xposition Yposition Zposition Zrotation Xrotation Yrotation
                      End Site
                      {
                        OFFSET 0.1475 -2.0882 0.0028
                      }
                    }
                  }
                }
                JOINT RightFinger3
                {
                  OFFSET -0.6113 -8.7231 -2.0637
                  CHANNELS 6 Xposition Yposition Zposition Zrotation Xrotation Yrotation
                  JOINT RightFinger31
                  {
                    OFFSET 0.1927 -3.8059 -0.2383
                    CHANNELS 6 Xposition Yposition Zposition Zrotation Xrotation Yrotation
                    JOINT RightFinger32
                    {
                      OFFSET 0.1091 -2.1688 -0.1362
                      CHANNELS 6 Xposition Yposition Zposition Zrotation Xrotation Yrotation
                      End Site
                      {
                        OFFSET 0.2358 -1.9176 -0.0906
                      }
                    }
                  }
                }
                JOINT RightFinger4
                {
                  OFFSET 0.6151 -8.0947 -3.564
                  CHANNELS 6 Xposition Yposition Zposition Zrotation Xrotation Yrotation
                  JOINT RightFinger41
                  {
                    OFFSET 0.4882 -2.341 -0.6462
                    CHANNELS 6 Xposition Yposition Zposition Zrotation Xrotation Yrotation
                    JOINT RightFinger42
                    {
                      OFFSET 0.3574 -1.7166 -0.4742
                      CHANNELS 6 Xposition Yposition Zposition Zrotation Xrotation Yrotation
                      End Site
                      {
                        OFFSET 0.4187 -1.5237 -0.3496
                      }
                    }
                  }
                }
                JOINT RightFinger0
                {
                  OFFSET 1.4199 -1.8761 1.4221
                  CHANNELS 6 Xposition Yposition Zposition Zrotation Xrotation Yrotation
                  JOINT RightFinger01
                  {
                    OFFSET 1.1472 -3.4929 2.6336
                    CHANNELS 6 Xposition Yposition Zposition Zrotation Xrotation Yrotation
                    JOINT RightFinger02
                    {
                      OFFSET 0.8229 -2.3 1.6571
                      CHANNELS 6 Xposition Yposition Zposition Zrotation Xrotation Yrotation
                      End Site
                      {
                        OFFSET 0.5822 -1.6914 1.1582
                      }
                    }
                  }
                }
              }
            }
          }
        }
      }
    }
  }
  JOINT RightHip
  {
    OFFSET -9.412 3.9771 -0.7758
    CHANNELS 6 Xposition Yposition Zposition Zrotation Xrotation Yrotation
    JOINT RightKnee
    {
      OFFSET -0.7531 -40.938 0
      CHANNELS 6 Xposition Yposition Zposition Zrotation Xrotation Yrotation
      JOINT RightAnkle
      {
        OFFSET 0 -40.1986 0
        CHANNELS 6 Xposition Yposition Zposition Zrotation Xrotation Yrotation
        JOINT RightToe
        {
          OFFSET 0 -4.4182 9.239
          CHANNELS 6 Xposition Yposition Zposition Zrotation Xrotation Yrotation
          End Site
          {
            OFFSET 0 0 6.1981
          }
        }
      }
    }
  }
  JOINT LeftHip
  {
    OFFSET 9.4119 3.9773 -0.7758
    CHANNELS 6 Xposition Yposition Zposition Zrotation Xrotation Yrotation
    JOINT LeftKnee
    {
      OFFSET 0.7532 -40.9383 0
      CHANNELS 6 Xposition Yposition Zposition Zrotation Xrotation Yrotation
      JOINT LeftAnkle
      {
        OFFSET 0 -40.1986 0
        CHANNELS 6 Xposition Yposition Zposition Zrotation Xrotation Yrotation
        JOINT LeftToe
        {
          OFFSET 0 -4.4182 9.239
          CHANNELS 6 Xposition Yposition Zposition Zrotation Xrotation Yrotation
          End Site
          {
            OFFSET 0 0 6.1981
          }
        }
      }
    }
  }
}
MOTION
Frames:	4
Frame Time:	0.0333333
5.72205e-005 65.662 3.42586 0 0 -0 0 8.7983 -4.7612 0 0 -0 0 8.0291 0.4195 0 0 -0 0 9.9351 -2.2114 0 0 -0 0 22.3885 -0.4656 0 0 -0 -0.0001 12.643 3.4389 0 0 -0 2.2603 21.606 7.4023 0 0 -12.5014 13.5163 -1.1332 -5.0146 88.1196 14.2451 10.6914 -0.0995 -28.05 -0.2431 -0.00160068 -0.00239207 0.000740045 0.0679 -23.3996 -0.1402 -8.4365e-005 7.00714e-005 -9.52055e-007 0.7932 -9.069 2.5189 9.93923e-017 -1.98785e-016 -1.59028e-015 -0.8272 -3.3923 0.5977 9.93923e-017 -5.96354e-016 -1.59028e-015 -0.5649 -2.3158 0.4082 -9.93923e-017 -5.96354e-016 -1.59028e-015 0.9159 -9.2044 0.2193 9.93923e-017 -1.98785e-016 -1.59028e-015 0.0117 -4.1944 -0.0248 -0.0128176 0.00232552 8.52707e-005 0.0071 -2.3249 -0.0142 9.93923e-017 5.96354e-016 -0 0.6113 -8.7231 -2.0637 9.93923e-017 -1.98785e-016 -1.59028e-015 -0.1927 -3.8059 -0.2383 -0.0160551 0.00299681 0.000857156 -0.1091 -2.1688 -0.1362 -2.48481e-016 0 3.18055e-015 -0.6151 -8.0947 -3.5641 9.93923e-017 -1.98785e-016 -1.59028e-015 -0.4882 -2.341 -0.6462 -0.0125865 0.0031206 0.00282719 -0.3575 -1.7167 -0.4742 0 1.98785e-016 -0 -1.42 -1.8761 1.4223 9.93923e-017 -1.98785e-016 -1.59028e-015 -1.1471 -3.4929 2.6334 9.93923e-017 -5.96354e-016 -1.59028e-015 -0.823 -2.3 1.6571 -9.93923e-017 -5.96354e-016 -1.59028e-015 -2.2603 21.606 7.4023 -0.865644 0.16582 7.03859 -13.5187 -1.1334 -5.0155 -88.0329 10.2057 -10.5567 0.0994 -28.0499 -0.2431 0.0015593 -0.00248883 -0.000788628 -0.0679 -23.3996 -0.1402 7.87605e-005 4.10553e-005 1.24965e-005 -0.7932 -9.0691 2.5189 -3.97569e-016 -7.95139e-016 3.18055e-015 0.8272 -3.3923 0.5977 -1.98785e-016 -3.97569e-016 3.18055e-015 0.565 -2.3158 0.4082 -1.98785e-016 0 3.18055e-015 -0.916 -9.2044 0.2193 -3.97569e-016 -7.95139e-016 3.18055e-015 -0.0117 -4.1944 -0.0248 0.0129473 0.00231697 -8.70038e-005 -0.0071 -2.3249 -0.0142 9.93923e-017 -7.95139e-016 1.59028e-015 -0.6113 -8.7231 -2.0637 -3.97569e-016 -7.95139e-016 3.18055e-015 0.1927 -3.8059 -0.2383 0.0163314 0.00303369 -0.000872333 0.1091 -2.1688 -0.1362 3.97569e-016 7.95139e-016 -3.18055e-015 0.6151 -8.0947 -3.564 -3.97569e-016 -7.95139e-016 3.18055e-015 0.4882 -2.341 -0.6462 0.0145763 0.00367772 -0.00326275 0.3574 -1.7166 -0.4742 9.93923e-017 -3.97569e-016 -0 1.4199 -1.8761 1.4221 -3.97569e-016 -7.95139e-016 3.18055e-015 1.1472 -3.4929 2.6336 -1.98785e-016 -3.97569e-016 3.18055e-015 0.8229 -2.3 1.6571 -1.98785e-016 0 3.18055e-015 -9.412 3.9771 -0.7758 3.42482 1.32465 -0.0626183 -0.7531 -40.938 0 0.000117508 0.717283 0.000978199 0 -40.1986 0 -3.4257 -2.04197 -0.0604716 8.88178e-016 -4.4182 9.239 6.47761e-025 0 -0 9.4119 3.9773 -0.7758 -3.42483 1.34017 0.0627307 0.7532 -40.9383 -2.22045e-016 -0.000193936 0.682302 -0.0013703 -8.88179e-016 -40.1986 0 3.42574 -2.02253 0.0595886 -8.88178e-016 -4.4182 9.239 -8.45714e-024 0 -7.40531e-025 
12.5366 -2.71151 28.0711 49.0036 0.652159 89.2426 0 8.7983 -4.7612 -0.457389 7.17069 -0.232693 0 8.0291 0.4195 -0.89578 14.3422 -0.412019 0 9.9351 -2.2114 -0.895789 14.3424 -0.412017 -3.55271e-015 22.3885 -0.4656 2.49877e-006 -3.35259e-005 8.75575e-006 -0.0001 12.643 3.4389 0.120166 0.274732 0.200766 2.2603 21.606 7.4023 -4.54554 -0.0680523 -12.2433 13.5163 -1.1332 -5.0146 89.5206 16.2734 10.4583 -0.0995 -28.05 -0.2431 15.3484 -11.5982 3.42266 0.0679 -23.3996 -0.1402 -71.2954 -17.8111 45.4318 0.7932 -9.069 2.5189 -4.7397e-006 -6.11875e-006 -1.63279e-006 -0.8272 -3.3923 0.5977 -3.18055e-015 -1.43125e-014 2.22639e-014 -0.5649 -2.3158 0.4082 4.01347e-006 -1.78414e-007 5.73259e-006 0.9159 -9.2044 0.2193 -4.7397e-006 -6.11875e-006 -1.63279e-006 0.0117 -4.1944 -0.0248 -0.0128214 0.00233872 9.12965e-005 0.0071 -2.3249 -0.0142 -3.18055e-015 -7.95139e-015 -0 0.6113 -8.7231 -2.0637 -4.7397e-006 -6.11875e-006 -1.63279e-006 -0.1927 -3.8059 -0.2383 -0.0160732 0.00301244 0.000863815 -0.1091 -2.1688 -0.1362 -1.90833e-014 -2.22639e-014 3.18055e-015 -0.6151 -8.0947 -3.5641 -4.7397e-006 -6.11875e-006 -1.63279e-006 -0.4882 -2.341 -0.6462 -0.012668 0.00315779 0.00285089 -0.3575 -1.7167 -0.4742 3.53113e-031 -6.36111e-015 3.18055e-015 -1.42 -1.8761 1.4223 -4.7397e-006 -6.11875e-006 -1.63279e-006 -1.1471 -3.4929 2.6334 -3.18055e-015 -1.43125e-014 2.22639e-014 -0.823 -2.3 1.6571 4.01347e-006 -1.78414e-007 5.73259e-006 -2.2603 21.606 7.4023 29.892 -4.40337 7.66701 -13.5187 -1.1334 -5.0155 -69.0893 13.5174 -14.3866 0.0994 -28.0499 -0.2431 25.2057 -32.7476 5.57489 -0.0679 -23.3996 -0.1402 15.4514 -10.6073 19.8441 -0.7932 -9.0691 2.5189 4.09949e-006 -5.47501e-007 7.21803e-006 0.8272 -3.3923 0.5977 -7.95139e-015 -8.34896e-015 3.18055e-015 0.565 -2.3158 0.4082 -7.95139e-015 -1.07344e-014 3.18055e-015 -0.916 -9.2044 0.2193 4.09949e-006 -5.47501e-007 7.21803e-006 -0.0117 -4.1944 -0.0248 0.0130646 0.00234697 -9.00725e-005 -0.0071 -2.3249 -0.0142 -7.95139e-016 7.15625e-015 -9.54166e-015 -0.6113 -8.7231 -2.0637 4.09949e-006 -5.47501e-007 7.21803e-006 0.1927 -3.8059 -0.2383 0.0163697 0.00304474 -0.000871388 0.1091 -2.1688 -0.1362 -3.18055e-015 -1.59028e-015 -0 0.6151 -8.0947 -3.564 4.09949e-006 -5.47501e-007 7.21803e-006 0.4882 -2.341 -0.6462 0.0145334 0.00368225 -0.00325318 0.3574 -1.7166 -0.4742 1.59028e-015 -3.97569e-016 -0 1.4199 -1.8761 1.4221 4.09949e-006 -5.47501e-007 7.21803e-006 1.1472 -3.4929 2.6336 -7.95139e-015 -8.34896e-015 3.18055e-015 0.8229 -2.3 1.6571 -7.95139e-015 -1.07344e-014 3.18055e-015 -9.412 3.9771 -0.7758 -82.3963 -48.6866 -90.3357 -0.7531 -40.938 1.77636e-015 161.652 53.4674 -168.565 0 -40.1986 -7.10543e-015 0.47345 1.43327 5.98184 0 -4.4182 9.239 -7.06225e-031 6.36111e-015 6.36111e-015 9.4119 3.9773 -0.7758 177.797 -77.6715 -171.875 0.7532 -40.9383 0 -177.89 34.1858 -174.807 0 -40.1986 7.10543e-015 2.86403 24.8666 3.62782 0 -4.4182 9.239 2.54296e-007 3.34043e-006 -7.02299e-007 
12.5366 -2.71151 28.0711 49.0036 0.652152 89.2426 0 8.7983 -4.7612 -0.457374 7.17068 -0.232683 0 8.0291 0.4195 -0.895794 14.3422 -0.412031 0 9.9351 -2.2114 -0.895789 14.3423 -0.412003 -3.55271e-015 22.3885 -0.4656 4.60581e-006 3.79122e-005 6.51219e-006 -0.0001 12.643 3.4389 0.276614 0.529097 0.375125 2.2603 21.606 7.4023 -4.54554 -0.0679711 -12.2433 13.5163 -1.1332 -5.0146 89.5206 16.2734 10.4583 -0.0995 -28.05 -0.2431 15.3483 -11.5983 3.42266 0.0679 -23.3996 -0.1402 -71.2954 -17.8111 45.4319 0.7932 -9.069 2.5189 5.32407e-006 4.56243e-007 8.64025e-006 -0.8272 -3.3923 0.5977 9.54166e-015 7.95139e-015 3.18055e-015 -0.5649 -2.3158 0.4082 1.03883e-006 -6.16e-006 -1.34366e-006 0.9159 -9.2044 0.2193 5.32407e-006 4.56243e-007 8.64025e-006 0.0117 -4.1944 -0.0248 -0.0128323 0.00232697 9.62259e-005 0.0071 -2.3249 -0.0142 -7.06225e-031 6.36111e-015 6.36111e-015 0.6113 -8.7231 -2.0637 5.32407e-006 4.56243e-007 8.64025e-006 -0.1927 -3.8059 -0.2383 -0.0160292 0.00298927 0.000848324 -0.1091 -2.1688 -0.1362 1.03885e-006 1.61891e-007 -1.34361e-006 -0.6151 -8.0947 -3.5641 5.32407e-006 4.56243e-007 8.64025e-006 -0.4882 -2.341 -0.6462 -0.0126751 0.00314459 0.00284918 -0.3575 -1.7167 -0.4742 -3.18055e-015 4.77083e-015 -3.18055e-015 -1.42 -1.8761 1.4223 5.32407e-006 4.56243e-007 8.64025e-006 -1.1471 -3.4929 2.6334 9.54166e-015 7.95139e-015 3.18055e-015 -0.823 -2.3 1.6571 1.03883e-006 -6.16e-006 -1.34366e-006 -2.2603 21.606 7.4023 29.8921 -4.4033 7.66699 -13.5187 -1.1334 -5.0155 -69.0893 13.5174 -14.3867 0.0994 -28.0499 -0.2431 25.0451 -32.572 5.44635 -0.0679 -23.3996 -0.1402 15.2994 -10.6344 19.8417 -0.7932 -9.0691 2.5189 -3.18055e-015 5.1684e-015 6.36111e-015 0.8272 -3.3923 0.5977 -1.59028e-015 1.98785e-015 -0 0.565 -2.3158 0.4082 -1.59028e-015 4.77083e-015 -0 -0.916 -9.2044 0.2193 -3.18055e-015 5.1684e-015 6.36111e-015 -0.0117 -4.1944 -0.0248 0.0129723 0.00231982 -8.01322e-005 -0.0071 -2.3249 -0.0142 -1.59028e-015 7.95139e-015 -0 -0.6113 -8.7231 -2.0637 -3.18055e-015 5.1684e-015 6.36111e-015 0.1927 -3.8059 -0.2383 0.0162767 0.00303501 -0.000858965 0.1091 -2.1688 -0.1362 -4.77083e-015 -4.77083e-015 6.36111e-015 0.6151 -8.0947 -3.564 -3.18055e-015 5.1684e-015 6.36111e-015 0.4882 -2.341 -0.6462 0.0144867 0.00365824 -0.00323562 0.3574 -1.7166 -0.4742 -1.59028e-015 2.14687e-014 3.18055e-015 1.4199 -1.8761 1.4221 -3.18055e-015 5.1684e-015 6.36111e-015 1.1472 -3.4929 2.6336 -1.59028e-015 1.98785e-015 -0 0.8229 -2.3 1.6571 -1.59028e-015 4.77083e-015 -0 -9.412 3.9771 -0.7758 -82.3963 -48.6867 -90.3358 -0.7531 -40.938 -2.66454e-015 161.652 53.4674 -168.565 3.55271e-015 -40.1986 -7.10543e-015 0.473425 1.43327 5.98181 -7.10543e-015 -4.4182 9.23901 9.26732e-006 7.65172e-006 1.50407e-005 9.4119 3.9773 -0.7758 177.797 -77.6706 -171.875 0.7532 -40.9383 -5.32907e-015 -177.89 34.1848 -174.807 0 -40.1986 0 2.86403 24.8665 3.62778 3.55271e-015 -4.4182 9.239 -8.38027e-007 -3.89843e-006 -1.9073e-007 
12.5366 -2.71151 28.0711 49.0036 0.652159 89.2426 0 8.7983 -4.7612 -0.457389 7.17069 -0.232693 3.55271e-015 8.0291 0.4195 -0.89578 14.3422 -0.412019 0 9.9351 -2.2114 -0.895789 14.3424 -0.412017 0 22.3885 -0.4656 2.49877e-006 -3.35259e-005 8.75575e-006 -0.0001 12.643 3.4389 0.432397 0.784193 0.548872 2.2603 21.606 7.4023 -4.54554 -0.0680523 -12.2433 13.5163 -1.1332 -5.0146 89.5206 16.2734 10.4583 -0.0995 -28.05 -0.2431 15.3484 -11.5982 3.42266 0.0679 -23.3996 -0.1402 -71.2954 -17.8111 45.4319 0.7932 -9.069 2.5189 -6.36111e-015 0 -9.54166e-015 -0.8272 -3.3923 0.5977 -1.03883e-006 4.28174e-006 1.34366e-006 -0.5649 -2.3158 0.4082 -3.12605e-007 2.10011e-006 -2.75613e-006 0.9159 -9.2044 0.2193 -6.36111e-015 0 -9.54166e-015 0.0117 -4.1944 -0.0248 -0.0128282 0.00233821 9.23463e-005 0.0071 -2.3249 -0.0142 4.42749e-006 -3.17839e-006 -1.12316e-006 0.6113 -8.7231 -2.0637 -6.36111e-015 0 -9.54166e-015 -0.1927 -3.8059 -0.2383 -0.0160784 0.0029971 0.00086241 -0.1091 -2.1688 -0.1362 -6.36111e-015 1.11319e-014 -0 -0.6151 -8.0947 -3.5641 -6.36111e-015 0 -9.54166e-015 -0.4882 -2.341 -0.6462 -0.0126721 0.00314057 0.00285626 -0.3575 -1.7167 -0.4742 -1.03886e-006 3.10952e-006 1.3436e-006 -1.42 -1.8761 1.4223 -6.36111e-015 0 -9.54166e-015 -1.1471 -3.4929 2.6334 -1.03883e-006 4.28174e-006 1.34366e-006 -0.823 -2.3 1.6571 -3.12605e-007 2.10011e-006 -2.75613e-006 -2.2603 21.606 7.4023 29.892 -4.40337 7.66701 -13.5187 -1.1334 -5.0155 -69.0893 13.5174 -14.3866 0.0994 -28.0499 -0.2431 24.885 -32.396 5.3185 -0.0679 -23.3996 -0.1402 15.1473 -10.6615 19.8392 -0.7932 -9.0691 2.5189 -3.18055e-015 -5.96354e-015 6.36111e-015 0.8272 -3.3923 0.5977 -1.59028e-015 -1.03368e-014 6.36111e-015 0.565 -2.3158 0.4082 1.59028e-015 -1.47101e-014 6.36111e-015 -0.916 -9.2044 0.2193 -3.18055e-015 -5.96354e-015 6.36111e-015 -0.0117 -4.1944 -0.0248 0.0128927 0.00231212 -8.37217e-005 -0.0071 -2.3249 -0.0142 -1.59028e-015 -1.78906e-014 -0 -0.6113 -8.7231 -2.0637 -3.18055e-015 -5.96354e-015 6.36111e-015 0.1927 -3.8059 -0.2383 0.0163357 0.00303795 -0.000864137 0.1091 -2.1688 -0.1362 1.59028e-015 -2.78299e-015 -3.18055e-015 0.6151 -8.0947 -3.564 -3.18055e-015 -5.96354e-015 6.36111e-015 0.4882 -2.341 -0.6462 0.0145588 0.00367879 -0.00325479 0.3574 -1.7166 -0.4742 4.8553e-031 -4.37326e-015 6.36111e-015 1.4199 -1.8761 1.4221 -3.18055e-015 -5.96354e-015 6.36111e-015 1.1472 -3.4929 2.6336 -1.59028e-015 -1.03368e-014 6.36111e-015 0.8229 -2.3 1.6571 1.59028e-015 -1.47101e-014 6.36111e-015 -9.412 3.9771 -0.7758 -82.3963 -48.6867 -90.3358 -0.7531 -40.938 -6.21725e-015 161.652 53.4674 -168.565 0 -40.1986 0 0.473439 1.43329 5.98181 3.55271e-015 -4.4182 9.239 3.97892e-006 -4.02331e-007 -3.14295e-006 9.4119 3.9773 -0.7758 177.797 -77.6712 -171.875 0.7532 -40.9383 3.55271e-015 -177.89 34.1855 -174.807 0 -40.1986 0 2.86404 24.8666 3.62781 3.55271e-015 -4.4182 9.239 1.67606e-006 -1.79946e-007 3.8146e-007 
